<?xml version="1.0" standalone="no"?><!DOCTYPE svg PUBLIC "-//W3C//DTD SVG 1.1//EN" "http://www.w3.org/Graphics/SVG/1.1/DTD/svg11.dtd"><svg class="icon" width="200px" height="200.00px" viewBox="0 0 1024 1024" version="1.1" xmlns="http://www.w3.org/2000/svg"><path d="M896 656v224c0 8.8-7.2 16-16 16H144c-8.8 0-16-7.2-16-16V144c0-8.8 7.2-16 16-16h224c8.8 0 16 7.2 16 16v48H256v32h128v64h-48v32h48v64h-48v32h48v64h-48v32h48v64H256v32h128v32h32v128h32V640h64v48h32v-48h64v48h32v-48h64v48h32v-48h64v128h32V640h48c8.8 0 16 7.2 16 16z" /></svg>