<?xml version="1.0" standalone="no"?><!DOCTYPE svg PUBLIC "-//W3C//DTD SVG 1.1//EN" "http://www.w3.org/Graphics/SVG/1.1/DTD/svg11.dtd"><svg class="icon" width="200px" height="200.00px" viewBox="0 0 1024 1024" version="1.1" xmlns="http://www.w3.org/2000/svg"><path d="M896 512h64c0 247.2-200.8 448-448 448S64 759.2 64 512 264.8 64 512 64v64c-212 0-384 172-384 384s172 384 384 384 384-172 384-384zM640 608v-64H531.2l107.2-107.2-45.6-44.8-112 112L368 392l-45.6 45.6L429.6 544H320v64h128.8v32H320v64h128.8v96h64V704H640v-64H512.8v-32H640z m247.2-516.8l-136 136-109.6-109.6-2.4 268.8 268.8-2.4-111.2-112 136-136-45.6-44.8z" /></svg>