<?xml version="1.0" standalone="no"?><!DOCTYPE svg PUBLIC "-//W3C//DTD SVG 1.1//EN" "http://www.w3.org/Graphics/SVG/1.1/DTD/svg11.dtd"><svg class="icon" width="200px" height="200.00px" viewBox="0 0 1024 1024" version="1.1" xmlns="http://www.w3.org/2000/svg"><path d="M512 64v64c212 0 384 172 384 384s-172 384-384 384-384-172-384-384H64c0 247.2 200.8 448 448 448s448-200.8 448-448S759.2 64 512 64z m144 328L544 504 432 392l-45.6 45.6L492.8 544H384v64h127.2v32H384v64h127.2v96h64V704H704v-64H575.2v-32H704v-64H594.4l107.2-107.2L656 392z"  /><path d="M358.4 309.6l-136-136L332.8 64H64v264l113.6-108.8 136 135.2z"  /></svg>