<?xml version="1.0" standalone="no"?><!DOCTYPE svg PUBLIC "-//W3C//DTD SVG 1.1//EN" "http://www.w3.org/Graphics/SVG/1.1/DTD/svg11.dtd"><svg class="icon" width="200px" height="200.00px" viewBox="0 0 1024 1024" version="1.1" xmlns="http://www.w3.org/2000/svg"><path d="M736.8 192h-96c0-70.4-57.6-128-128-128s-128 57.6-128 128h-128c-35.2 0-64 28.8-64 64v480l544-544z m-224-32c17.6 0 32 14.4 32 32s-14.4 32-32 32-32-14.4-32-32 13.6-32 32-32z m350.4-2.4l45.6 45.6-76.8 75.2V896c0 35.2-28.8 64-64 64H256c-28.8 0-52.8-18.4-60.8-44.8l-40.8 40.8-45.6-45.6" /></svg>