<?xml version="1.0" standalone="no"?><!DOCTYPE svg PUBLIC "-//W3C//DTD SVG 1.1//EN" "http://www.w3.org/Graphics/SVG/1.1/DTD/svg11.dtd"><svg class="icon" width="200px" height="200.00px" viewBox="0 0 1024 1024" version="1.1" xmlns="http://www.w3.org/2000/svg"><path d="M920.8 426.4l-115.2-288c-2.4-6.4-8-10.4-15.2-10.4H236c-6.4 0-12 4-14.4 9.6l-120 288c-4 10.4 3.2 22.4 14.4 22.4H192v432c0 8.8 7.2 16 16 16h608c8.8 0 16-7.2 16-16V448h73.6c11.2 0 19.2-11.2 15.2-21.6zM640 768H384v-64h256v64z m0-128H384v-64h256v64z m0-128H384v-64h256v64z" /></svg>