<?xml version="1.0" standalone="no"?><!DOCTYPE svg PUBLIC "-//W3C//DTD SVG 1.1//EN" "http://www.w3.org/Graphics/SVG/1.1/DTD/svg11.dtd"><svg class="icon" width="200px" height="200.00px" viewBox="0 0 1024 1024" version="1.1" xmlns="http://www.w3.org/2000/svg"><path d="M448 863.2c0 42.4-28 81.6-71.2 92.8-51.2 13.6-104-16.8-117.6-68-9.6-35.2 1.6-71.2 26.4-94.4L155.2 307.2l-88-50.4 32-55.2 110.4 64L344.8 768c31.2-2.4 61.6 11.2 80.8 35.2L944.8 664l16.8 61.6L448 863.2zM272.8 252c-4.8-16.8 5.6-34.4 22.4-39.2l460-123.2c2.4-0.8 5.6-0.8 8-0.8 14.4 0 27.2 9.6 31.2 24l123.2 460c4.8 16.8-5.6 34.4-22.4 39.2L435.2 734.4c-2.4 0.8-5.6 0.8-8 0.8-14.4 0-27.2-9.6-31.2-24L272.8 252z m70.4 14.4L449.6 664 848 557.6 740.8 160 343.2 266.4z m152 319.2l308.8-83.2-16.8-61.6-308.8 83.2 16.8 61.6z m90.4-156.8l185.6-49.6-16.8-61.6-185.6 49.6 16.8 61.6z" /></svg>