<?xml version="1.0" standalone="no"?><!DOCTYPE svg PUBLIC "-//W3C//DTD SVG 1.1//EN" "http://www.w3.org/Graphics/SVG/1.1/DTD/svg11.dtd"><svg class="icon" width="200px" height="200.00px" viewBox="0 0 1024 1024" version="1.1" xmlns="http://www.w3.org/2000/svg"><path d="M448 864c0 42.4-28 81.6-71.2 92.8-51.2 13.6-104-16.8-117.6-68-9.6-35.2 1.6-71.2 26.4-94.4L155.2 307.2l-88-50.4 32-55.2 110.4 64L344 768.8c31.2-2.4 61.6 11.2 80.8 35.2L945.6 664l16.8 61.6L448 864z m447.2-252.8L435.2 734.4c-16.8 4.8-34.4-5.6-39.2-22.4L272.8 252c-4.8-16.8 5.6-34.4 22.4-39.2l460-123.2c16.8-4.8 34.4 5.6 39.2 22.4l123.2 460c4.8 17.6-5.6 35.2-22.4 39.2zM568.8 368l16.8 61.6 185.6-49.6-16.8-61.6L568.8 368z m235.2 135.2l-16.8-61.6-308.8 82.4 16.8 61.6 308.8-82.4z" /></svg>