<?xml version="1.0" standalone="no"?><!DOCTYPE svg PUBLIC "-//W3C//DTD SVG 1.1//EN" "http://www.w3.org/Graphics/SVG/1.1/DTD/svg11.dtd"><svg class="icon" width="200px" height="200.00px" viewBox="0 0 1024 1024" version="1.1" xmlns="http://www.w3.org/2000/svg"><path d="M830.4 513.6c-72-72-180-84.8-264.8-38.4L335.2 244.8 448 132l-45.6-45.6-144.8 80.8L154.4 64 64 154.4l411.2 411.2c-45.6 84.8-32.8 192.8 38.4 264.8 87.2 87.2 229.6 87.2 316.8 0 88-87.2 88-228.8 0-316.8zM740 740c-37.6 37.6-98.4 37.6-136 0s-37.6-98.4 0-136 98.4-37.6 136 0 37.6 98.4 0 136z" /></svg>