<?xml version="1.0" standalone="no"?><!DOCTYPE svg PUBLIC "-//W3C//DTD SVG 1.1//EN" "http://www.w3.org/Graphics/SVG/1.1/DTD/svg11.dtd"><svg class="icon" width="200px" height="200.00px" viewBox="0 0 1024 1024" version="1.1" xmlns="http://www.w3.org/2000/svg"><path d="M928 192H96c-17.6 0-32 14.4-32 32v576c0 17.6 14.4 32 32 32h832c17.6 0 32-14.4 32-32V224c0-17.6-14.4-32-32-32z m-32 576H128V256h768v512zM447.2 480L520 607.2l128-221.6L832 704H317.6l129.6-224zM192 416c0-52.8 43.2-96 96-96s96 43.2 96 96-43.2 96-96 96-96-43.2-96-96z" /></svg>