<svg height="200" viewBox="0 0 1024 1024" width="200" xmlns="http://www.w3.org/2000/svg"><path d="m957.6 572.8-120.8-181.6c-3.2-4.8-8-7.2-13.6-7.2h-119.2v-160c0-17.6-14.4-32-32-32h-576c-17.6 0-32 14.4-32 32v448c0 17.6 14.4 32 32 32h32c0 70.4 57.6 128 128 128s128-57.6 128-128h256c0 70.4 57.6 128 128 128s128-57.6 128-128h32c17.6 0 32-14.4 32-32v-90.4c0-3.2-.8-6.4-2.4-8.8zm-701.6 195.2c-35.2 0-64-28.8-64-64s28.8-64 64-64 64 28.8 64 64-28.8 64-64 64zm384-128h-273.6c-22.4-38.4-63.2-64-110.4-64s-88.8 25.6-110.4 64h-17.6v-384h512zm128 128c-35.2 0-64-28.8-64-64s28.8-64 64-64 64 28.8 64 64-28.8 64-64 64zm128-128h-17.6c-22.4-38.4-63.2-64-110.4-64-23.2 0-44.8 6.4-64 17.6v-145.6h95.2c5.6 0 10.4 2.4 12.8 7.2l80.8 116.8c1.6 2.4 3.2 5.6 3.2 8.8z"/></svg>